<svg xmlns="http://www.w3.org/2000/svg" width="25" height="25" viewBox="0 0 25 25" fill="none">
  <mask id="mask0_1_54" style="mask-type:alpha" maskUnits="userSpaceOnUse" x="0" y="0" width="25" height="25">
    <rect width="25" height="25" fill="#D9D9D9"/>
  </mask>
  <g mask="url(#mask0_1_54)">
    <path d="M14.5833 21.5885V19.4531C16.1458 19.0017 17.4045 18.1337 18.3594 16.849C19.3142 15.5642 19.7917 14.1059 19.7917 12.474C19.7917 10.842 19.3142 9.38368 18.3594 8.09896C17.4045 6.81424 16.1458 5.94618 14.5833 5.49479V3.35938C16.7361 3.84549 18.4896 4.9349 19.8438 6.6276C21.1979 8.32031 21.875 10.2691 21.875 12.474C21.875 14.6788 21.1979 16.6276 19.8438 18.3203C18.4896 20.013 16.7361 21.1024 14.5833 21.5885ZM3.125 15.625V9.375H7.29167L12.5 4.16667V20.8333L7.29167 15.625H3.125ZM14.5833 16.6667V8.28125C15.3993 8.66319 16.0373 9.23611 16.4974 10C16.9575 10.7639 17.1875 11.5972 17.1875 12.5C17.1875 13.3854 16.9575 14.2057 16.4974 14.9609C16.0373 15.7161 15.3993 16.2847 14.5833 16.6667ZM10.4167 9.21875L8.17708 11.4583H5.20833V13.5417H8.17708L10.4167 15.7812V9.21875Z" fill="white"/>
  </g>
</svg>